<svg width="24" height="24" viewBox="0 0 24 24" fill="none" xmlns="http://www.w3.org/2000/svg">
<path fill-rule="evenodd" clip-rule="evenodd" d="M16.9979 1.99945C16.9979 1.44855 16.5513 1.00195 16.0004 1.00195C15.4495 1.00195 15.0029 1.44855 15.0029 1.99945V3.00293H8.99695V1.99945C8.99695 1.44855 8.55036 1.00195 7.99945 1.00195C7.44855 1.00195 7.00195 1.44855 7.00195 1.99945V3.00293H5.00141C3.34593 3.00293 2.00391 4.34496 2.00391 6.00043V20.0004C2.00391 21.6559 3.34593 22.9979 5.00141 22.9979H19.0014C20.6569 22.9979 21.9989 21.6559 21.9989 20.0004V6.00043C21.9989 4.34496 20.6569 3.00293 19.0014 3.00293H16.9979V1.99945ZM20.0039 9.00293V6.00043C20.0039 5.44676 19.5551 4.99793 19.0014 4.99793H16.9979V5.99945C16.9979 6.55036 16.5513 6.99695 16.0004 6.99695C15.4495 6.99695 15.0029 6.55036 15.0029 5.99945V4.99793H8.99695V5.99945C8.99695 6.55036 8.55036 6.99695 7.99945 6.99695C7.44855 6.99695 7.00195 6.55036 7.00195 5.99945V4.99793H5.00141C4.44774 4.99793 3.99891 5.44676 3.99891 6.00043V9.00293H20.0039ZM3.99891 10.9979H20.0039V20.0004C20.0039 20.5541 19.5551 21.0029 19.0014 21.0029H5.00141C4.44774 21.0029 3.99891 20.5541 3.99891 20.0004V10.9979Z" fill="black"/>
</svg>
